# xmcd
#
# Track frame offsets: 
#        150
#        18166
#        36878
#        57895
#        73311
#        89357
#        109518
#        132143
#        148636
#        167301
#        183866
#        204314
#        221945
#        243355
#        261188
#
# Disc length: 3686 seconds
#
# Revision: 0
# Processed by: cddbd v1.5.1PL2 Copyright (c) Steve Scherf et al.
# Submitted via: ExactAudioCopy v0.95b2
#
DISCID=d00e640f
DTITLE=Various Artist - Музыкальная Чайхана 11
DYEAR=2006
DGENRE=Pop
TTITLE0=Абдулаева Насиба/Твои Глаза
TTITLE1=Art Rap/Ойна
TTITLE2=Озода/Мени Сев
TTITLE3=Ибрагимов Тахир/Любимая
TTITLE4=Шарипов Руслан/Айсулу (гр. Самарканд)
TTITLE5=Мездеке/Мелек Я Айни
TTITLE6=Оташ/Летняя Гроза (с гр. Дервиши)
TTITLE7=Гарем/Огонь Любви Моей Души
TTITLE8=Фатално 3/Целувка Под Дъжда
TTITLE9=Шахзод/Зор Булсам
TTITLE10=Лара/Катмер Катмер
TTITLE11=Усмонова Юлдуз/Ераки Мани
TTITLE12=Ali-Shah/Туган Кун
TTITLE13=Райхон/Сенга Эмас
TTITLE14=Орынбасарова Жанна/Хатуба
EXTD=
EXTT0=
EXTT1=
EXTT2=
EXTT3=
EXTT4=
EXTT5=
EXTT6=
EXTT7=
EXTT8=
EXTT9=
EXTT10=
EXTT11=
EXTT12=
EXTT13=
EXTT14=
PLAYORDER=
